<svg width="225" height="145" viewBox="0 0 225 145" fill="none" xmlns="http://www.w3.org/2000/svg">
<path fill-rule="evenodd" clip-rule="evenodd" d="M112.102 12.8602C85.4328 12.8602 68.7691 26.1143 62.0989 52.6227C72.1003 39.3685 83.7672 34.3992 97.0998 37.7108C104.707 39.5997 110.146 45.0864 116.162 51.1609C125.967 61.0525 137.317 72.5 162.101 72.5C188.766 72.5 205.434 59.2458 212.1 32.7414C202.102 45.9956 190.435 50.9649 177.103 47.6494C169.492 45.7604 164.053 40.2738 158.037 34.2032C148.231 24.3037 136.886 12.8602 112.102 12.8602ZM62.0989 72.5C35.4338 72.5 18.7661 85.7542 12.0999 112.263C22.1012 99.0084 33.7682 94.039 47.0968 97.3506C54.7076 99.2396 60.1472 104.726 66.1629 110.801C75.9683 120.692 87.3139 132.14 112.102 132.14C138.767 132.14 155.435 118.89 162.101 92.3813C152.099 105.635 140.432 110.605 127.1 107.293C119.493 105.4 114.053 99.9136 108.038 93.8431C98.2324 83.9514 86.8828 72.5 62.0989 72.5Z" fill="url(#paint0_radial_137_18)"/>
<defs>
<radialGradient id="paint0_radial_137_18" cx="0" cy="0" r="1" gradientUnits="userSpaceOnUse" gradientTransform="translate(236 -5.00001) rotate(164.907) scale(170.895 286.546)">
<stop stop-color="#C4203A"/>
<stop offset="1" stop-color="#F88A69"/>
</radialGradient>
</defs>
</svg>
